<svg width="48" height="41" viewBox="0 0 48 41" fill="none" xmlns="http://www.w3.org/2000/svg">
<path fill-rule="evenodd" clip-rule="evenodd" d="M0.711835 18.03C3.34754 7.43628 12.8606 0 23.7774 0C34.6941 0 44.2072 7.43628 46.8429 18.03H44.7594C41.2448 17.9783 37.8022 19.0287 34.9151 21.0337C34.7485 21.1543 34.5746 21.2645 34.3943 21.3636H34.1512C33.9709 21.2645 33.797 21.1543 33.6303 21.0337C27.6725 17.0274 19.8822 17.0274 13.9244 21.0337C13.7578 21.1543 13.5838 21.2645 13.4035 21.3636H13.1604C12.9802 21.2645 12.8062 21.1543 12.6396 21.0337C9.7525 19.0287 6.30992 17.9783 2.79528 18.03H0.711835ZM41.0092 28.9161C42.0788 28.0832 43.4043 27.6474 44.7594 27.6834H47.5547V22.1102H44.7594C42.3726 22.0813 40.0402 22.8242 38.1098 24.2283C35.8799 25.8723 32.8392 25.8723 30.6093 24.2283C26.5553 21.4063 21.173 21.4063 17.119 24.2283C14.8891 25.8723 11.8485 25.8723 9.61859 24.2283C7.66431 22.8063 5.29855 22.0624 2.8821 22.1102H0V27.6834H2.79529C4.15042 27.6474 5.47598 28.0832 6.5455 28.9161C10.5925 31.7402 15.9715 31.7402 20.0185 28.9161C21.0894 28.0857 22.414 27.6503 23.7687 27.6834C25.1242 27.6445 26.4508 28.0806 27.5189 28.9161C31.5729 31.7382 36.9552 31.7382 41.0092 28.9161ZM44.7594 37.6492C43.4043 37.6133 42.0788 38.049 41.0092 38.882C36.9552 41.704 31.5729 41.704 27.5189 38.882C26.4508 38.0464 25.1242 37.6104 23.7687 37.6492C22.414 37.6162 21.0894 38.0516 20.0185 38.882C15.9715 41.7061 10.5925 41.7061 6.5455 38.882C5.47598 38.049 4.15042 37.6133 2.79529 37.6492H0V32.076H2.8821C5.29855 32.0282 7.66431 32.7721 9.61859 34.1942C11.8485 35.8382 14.8891 35.8382 17.119 34.1942C21.173 31.3721 26.5553 31.3721 30.6093 34.1942C32.8392 35.8382 35.8799 35.8382 38.1098 34.1942C40.0402 32.7901 42.3726 32.0471 44.7594 32.076H47.5547V37.6492H44.7594Z" fill="#FF8576"/>
</svg>
